<?xml version="1.0" standalone="no"?><!DOCTYPE svg PUBLIC "-//W3C//DTD SVG 1.1//EN" "http://www.w3.org/Graphics/SVG/1.1/DTD/svg11.dtd"><svg t="1581679857802" class="icon" viewBox="0 0 1024 1024" version="1.1" xmlns="http://www.w3.org/2000/svg" p-id="2460" xmlns:xlink="http://www.w3.org/1999/xlink" width="200" height="200"><defs><style type="text/css"></style></defs><path d="M900.135587 904.575981" p-id="2461" fill="#f4ea2a"></path><path d="M980.890548 386.299221l-106.719976 0-181.378803 0-42.703043-76.043628L532.787065 84.74379l-21.359047 0-106.67482 225.511804-42.703043 76.043628L180.626194 386.299221 28.222843 386.299221l0 4.831751 60.208731 42.687991 168.825283 149.453124-38.307805 341.594238c0 10.656945 2.197619 10.656945 23.51151 10.656945l278.525592-170.812171 277.938557 170.812171c10.68705 0 10.957989 0 21.629987-10.656945L767.34523 583.272086l160.125121-137.336116 64.092195-51.899927C991.562546 383.364045 991.562546 386.299221 980.890548 386.299221zM287.361223 721.345759l309.412671-252.169219-288.083728-49.37116 437.46159 0L479.396972 661.302602l277.426782 60.043157L287.361223 721.345759z" p-id="2462" fill="#f4ea2a"></path></svg>